<?xml version="1.0" encoding="UTF-8"?>
<svg xmlns="http://www.w3.org/2000/svg" width="893" height="448">

<g   transform="matrix(1.25,0,0,-1.25,-829.09852,568.47774)">
<g   transform="matrix(11.629029,0,0,11.629029,-12492.493,-482.08867)">

<path             d="m 1139.92,62.131 c -1.245,-2.256 -1.717,-4.471 -0.844,-6.183 2.721,-5.341 15.362,-5.265 27.511,-0.176 3.056,1.279 5.826,2.772 8.219,4.375 7.119,4.769 9.878,10.149 7.841,14.147 -2.722,5.341 -13.768,5.908 -25.916,0.82 -1.301,-0.545 -2.549,-1.124 -3.738,-1.73 l -1.021,-0.007 c 1.732,0.952 3.668,1.928 5.624,2.747 13.811,5.785 27.516,5.552 30.61,-0.52 2.323,-4.559 -1.215,-10.928 -9.357,-16.359 -2.703,-1.803 -6.09,-3.647 -9.531,-5.089 -13.812,-5.784 -27.65,-5.427 -30.744,0.645 -1.096,2.15 -0.907,4.671 0.544,7.339 l 0.802,-0.009 z m 2.831,3.869 c 0.79,0.877 1.611,1.576 2.634,2.427 l 0.026,0.652 c -1.278,-1.017 -2.422,-2.058 -3.415,-3.103 l 0.755,0.024" fill="#e31836"/>
<path         d="m 1150.208,70.945 0.477,0 c 0.785,0 1.184,-0.29 1.386,-0.785 0.215,-0.513 0.132,-1.384 -0.122,-2.58 -0.254,-1.196 -0.541,-2.067 -0.975,-2.579 -0.412,-0.496 -0.934,-0.786 -1.719,-0.786 l -0.478,0 1.431,6.73 z m -6.803,-9.528h6.074c 3.794,0 6.713,2.303 7.504,6.027 0.777,3.655 -0.235,6.299 -5.174,6.299 l -5.784,0 -2.62,-12.326
M 1191.178,72.89v.27h.256c 0.113,0 0.236,0 0.236,-0.122 0,-0.119 -0.047,-0.151 -0.178,-0.148 l -0.314,0 z m 0,-0.219 0.171,0 0.262,-0.486 0.3,0 -0.288,0.486 c 0.21,0.027 0.323,0.114 0.323,0.332 0,0.123 -0.032,0.254 -0.139,0.321 -0.088,0.052 -0.219,0.055 -0.321,0.055 l -0.57,0 0,-1.194 0.262,0 0,0.486 z m 0.197,-1.016 c 0.6,0 1.095,0.492 1.095,1.095 0,0.603 -0.495,1.095 -1.095,1.095 -0.605,0 -1.094,-0.492 -1.094,-1.095 0,-0.603 0.489,-1.095 1.094,-1.095 m 0,1.899 c 0.423,0 0.804,-0.335 0.804,-0.804 0,-0.466 -0.381,-0.804 -0.804,-0.804 -0.427,0 -0.803,0.338 -0.803,0.804 0,0.469 0.376,0.804 0.803,0.804
M 1143.79,66.355 c -0.998,-3.769 -4.036,-5.255 -7.097,-5.255 -4.326,0 -5.768,2.63 -4.939,6.531 0.695,3.834 3.539,6.429 7.71,6.429 3.113,0 5.481,-1.263 4.674,-5.496 l -4.485,0 c 0.284,2.013 -0.171,2.286 -0.77,2.278 -1.264,0 -1.658,-1.291 -2.077,-3.262 -0.397,-1.869 -0.591,-3.262 0.639,-3.262 0.632,0 1.138,0.374 1.757,2.037 l 4.588,0
M 1158.064,73.743h4.372 l-0.603,-7.736 0.034,0 2.789,7.736 5.055,0 -0.5,-7.736 0.034,0 2.686,7.736 4.372,0 -5.284,-12.323 -5.294,0 0.555,7.995 -0.034,0 -2.843,-7.995 -5.294,0 -0.045,12.323 z"/>
</g></g></svg>